{
    "asset": {
        "version": "2.0",
        "generator": "Open Asset Import Library (assimp v5.4.0)"
    },
    "extensionsUsed": [
        "KHR_materials_volume",
        "FB_ngon_encoding"
    ],
    "accessors": [
        {
            "bufferView": 0,
            "byteOffset": 0,
            "componentType": 5126,
            "count": 1970,
            "type": "VEC3",
            "max": [
                0.9566668272018433,
                0.9593948721885681,
                2.1708145141601563
            ],
            "min": [
                -0.9566667675971985,
                -0.9566666483879089,
                -1.0034520626068115
            ]
        },
        {
            "bufferView": 1,
            "byteOffset": 0,
            "componentType": 5126,
            "count": 1970,
            "type": "VEC3",
            "max": [
                1.0,
                0.9999995231628418,
                1.0
            ],
            "min": [
                -1.0,
                -0.9999995231628418,
                -1.0
            ]
        },
        {
            "bufferView": 2,
            "byteOffset": 0,
            "componentType": 5126,
            "count": 1970,
            "type": "VEC2",
            "max": [
                0.8750001192092896,
                1.0
            ],
            "min": [
                0.0,
                -1.1920928955078125e-7
            ]
        },
        {
            "bufferView": 3,
            "byteOffset": 0,
            "componentType": 5125,
            "count": 10752,
            "type": "SCALAR",
            "max": [
                1969
            ],
            "min": [
                0
            ]
        }
    ],
    "buffers": [
        {
            "byteLength": 106048,
            "uri": "trainTest_3_0.bin"
        }
    ],
    "bufferViews": [
        {
            "buffer": 0,
            "byteOffset": 0,
            "byteLength": 23640,
            "target": 34962
        },
        {
            "buffer": 0,
            "byteOffset": 23640,
            "byteLength": 23640,
            "target": 34962
        },
        {
            "buffer": 0,
            "byteOffset": 47280,
            "byteLength": 15760,
            "target": 34962
        },
        {
            "buffer": 0,
            "byteOffset": 63040,
            "byteLength": 43008,
            "target": 34963
        }
    ],
    "materials": [
        {
            "name": "Material.001",
            "pbrMetallicRoughness": {
                "baseColorFactor": [
                    0.15169757604599,
                    0.15678320825099945,
                    0.14670932292938232,
                    1.0
                ],
                "metallicFactor": 0.0,
                "roughnessFactor": 0.5
            },
            "doubleSided": true
        }
    ],
    "meshes": [
        {
            "name": "meshes[0]",
            "primitives": [
                {
                    "mode": 4,
                    "material": 0,
                    "indices": 3,
                    "attributes": {
                        "POSITION": 0,
                        "NORMAL": 1,
                        "TEXCOORD_0": 2
                    }
                }
            ]
        }
    ],
    "nodes": [
        {
            "name": "trainTest_3",
            "children": [
                1
            ]
        },
        {
            "name": "Cube006",
            "matrix": [
                0.9699825048446655,
                0.0,
                0.0,
                0.0,
                0.0,
                0.9699825048446655,
                0.0,
                0.0,
                0.0,
                0.0,
                0.9699825048446655,
                0.0,
                0.0,
                1.0,
                0.0,
                1.0
            ],
            "mesh": 0,
            "extras": {
                "name": "Cube.006"
            }
        }
    ],
    "scenes": [
        {
            "nodes": [
                0
            ]
        }
    ],
    "scene": 0
}